<?xml version="1.0" standalone="no"?>
<!DOCTYPE svg PUBLIC "-//W3C//DTD SVG 20010904//EN"
 "http://www.w3.org/TR/2001/REC-SVG-20010904/DTD/svg10.dtd">
<svg version="1.0" xmlns="http://www.w3.org/2000/svg"
 width="800.000000pt" height="800.000000pt" viewBox="0 0 800.000000 800.000000"
 preserveAspectRatio="xMidYMid meet">
<metadata>
Created by potrace 1.14, written by Peter Selinger 2001-2017
</metadata>
<g transform="translate(0.000000,800.000000) scale(0.100000,-0.100000)"
fill="#000000" stroke="none">
<path d="M4037 6614 c-22 -29 -21 -34 1 -34 16 0 73 48 61 51 -26 8 -47 2 -62
-17z"/>
<path d="M4173 6504 c-1 -131 -1 -132 23 -137 12 -2 25 1 27 7 2 6 3 67 2 136
l-1 124 -25 1 -25 2 -1 -133z"/>
<path d="M4697 6632 c-2 -4 -3 -65 -3 -137 1 -138 -1 -132 46 -126 6 0 8 12 6
24 -2 13 0 30 5 38 8 12 11 12 19 -2 23 -40 47 -60 73 -63 27 -3 27 -3 11 22
-9 14 -26 41 -37 59 l-20 34 24 27 c13 15 28 30 33 33 4 4 4 9 -1 12 -20 12
-57 -3 -83 -35 l-27 -32 2 72 c1 40 -1 72 -4 73 -3 0 -14 2 -23 4 -10 2 -19 0
-21 -3z"/>
<path d="M5619 6627 c-1 -6 -1 -34 -2 -62 0 -33 -6 -54 -16 -62 -14 -11 -14
-14 -1 -22 9 -6 16 -27 16 -48 2 -70 2 -71 28 -66 23 5 24 9 24 66 -1 38 3 62
10 65 16 5 15 32 0 32 -9 0 -13 17 -13 51 0 46 -3 52 -22 55 -13 2 -23 -2 -24
-9z"/>
<path d="M2172 6616 c-5 -6 -8 -65 -8 -130 l1 -120 70 -1 c85 -1 95 2 95 26 0
16 -8 19 -54 19 -34 0 -55 5 -58 13 -2 6 -4 53 -3 104 2 81 0 92 -16 96 -10 3
-22 0 -27 -7z"/>
<path d="M2368 6623 c-11 -21 -1 -38 22 -38 33 0 36 38 3 43 -11 2 -23 0 -25
-5z"/>
<path d="M3563 6618 c-46 -12 -73 -56 -75 -120 -3 -86 48 -141 121 -132 60 7
92 52 93 131 0 91 -59 142 -139 121z m76 -64 c14 -32 8 -123 -10 -135 -28 -18
-65 -10 -77 16 -17 36 -15 97 4 123 20 29 69 27 83 -4z"/>
<path d="M5289 6593 c-3 -33 -6 -38 -17 -35 -7 1 -12 -7 -12 -18 0 -11 6 -20
14 -20 10 0 13 -17 14 -66 0 -36 4 -70 9 -75 13 -13 57 -18 70 -7 14 12 6 38
-12 38 -18 0 -21 12 -17 65 3 30 9 45 18 45 8 0 14 9 14 21 0 15 -5 19 -15 15
-8 -3 -16 0 -16 7 -1 7 -2 18 -3 26 -1 18 -46 22 -47 4z"/>
<path d="M2369 6557 c-7 -17 -1 -181 6 -185 37 -23 43 -8 41 102 -1 74 -2 79
-23 82 -13 2 -23 3 -24 1z"/>
<path d="M2486 6533 c-44 -48 -25 -158 29 -163 6 -1 17 -3 26 -5 25 -4 76 24
82 45 7 26 -32 31 -56 7 -14 -14 -22 -15 -37 -7 -25 13 -27 71 -4 94 20 20 30
20 46 -1 20 -27 48 -25 48 2 0 31 -23 47 -71 51 -32 2 -44 -2 -63 -23z"/>
<path d="M2685 6535 c-25 -26 -28 -36 -27 -87 1 -35 31 -77 57 -79 48 -5 78 0
92 14 19 18 7 41 -16 32 -41 -17 -81 -7 -81 19 0 10 14 13 49 11 65 -3 74 4
66 48 -5 27 -15 39 -40 51 -46 22 -70 20 -100 -9z m74 -24 c29 -19 20 -37 -15
-33 -36 4 -41 11 -22 30 14 14 18 15 37 3z"/>
<path d="M2864 6477 c1 -73 3 -82 27 -99 19 -15 31 -17 50 -10 13 5 33 6 45 2
11 -5 25 -5 30 -2 6 4 10 48 11 98 l0 91 -26 -2 c-25 -1 -26 -3 -26 -69 0 -50
-4 -70 -15 -76 -31 -17 -45 6 -46 77 -1 64 -2 67 -26 68 -25 2 -26 1 -24 -78z"/>
<path d="M3079 6557 c-1 -1 -3 -42 -4 -92 -3 -93 4 -111 35 -95 13 7 16 22 14
70 -2 52 1 62 19 71 31 17 45 -10 41 -80 -3 -51 -1 -60 15 -64 31 -8 38 5 35
63 -2 59 8 90 31 90 23 0 32 -30 29 -92 -2 -57 -2 -58 26 -58 l28 0 -3 79 c-1
44 -5 84 -9 89 -10 16 -63 24 -84 13 -14 -8 -29 -7 -51 0 -17 6 -39 8 -49 3
-9 -4 -21 -6 -27 -5 -22 6 -45 10 -46 8z"/>
<path d="M3772 6543 c-31 -28 -42 -73 -27 -117 20 -57 62 -78 105 -51 5 3 10
-1 10 -9 0 -24 -38 -40 -66 -28 -17 8 -25 8 -34 -3 -18 -22 26 -45 75 -39 63
8 69 20 75 144 3 61 2 111 -2 111 -28 5 -34 4 -43 -2 -6 -4 -17 -4 -25 1 -23
15 -46 12 -68 -7z m72 -29 c11 -4 16 -19 16 -48 0 -49 -9 -64 -34 -60 -34 5
-47 54 -26 95 11 20 19 23 44 13z"/>
<path d="M3993 6547 c-47 -24 -56 -119 -14 -160 27 -28 94 -27 125 2 30 28 34
106 7 138 -22 26 -85 37 -118 20z m77 -42 c7 -8 10 -15 6 -15 -3 0 -1 -11 4
-24 11 -31 -19 -67 -50 -59 -11 3 -21 8 -21 12 -1 3 -2 21 -4 39 -4 52 37 81
65 47z"/>
<path d="M4276 6552 c-2 -4 -4 -46 -4 -94 0 -88 8 -106 39 -88 9 6 14 29 14
71 0 49 4 64 18 73 28 17 44 -13 42 -83 0 -48 3 -61 16 -64 30 -8 36 7 34 87
-3 101 -17 115 -100 96 -5 -1 -12 -1 -15 0 -17 6 -40 7 -44 2z"/>
<path d="M4514 6543 c-42 -35 -51 -88 -24 -138 21 -39 80 -52 122 -27 47 28
57 101 19 150 -23 32 -88 40 -117 15z m75 -37 c16 -19 17 -74 3 -88 -32 -32
-62 -10 -64 47 -2 49 34 73 61 41z"/>
<path d="M4918 6545 c-16 -9 -28 -24 -28 -34 0 -25 30 -60 55 -64 37 -7 54
-19 48 -33 -7 -18 -37 -18 -53 1 -19 22 -50 19 -50 -6 0 -41 103 -60 138 -25
36 35 13 80 -50 96 -43 12 -53 40 -13 40 14 0 25 -4 25 -9 0 -11 49 -21 55
-11 3 4 -3 18 -13 29 -22 28 -79 36 -114 16z"/>
<path d="M5080 6538 c0 -10 5 -19 10 -19 6 -1 24 -3 40 -4 17 -1 32 -3 35 -4
5 -1 -1 -9 -53 -69 -24 -30 -37 -60 -28 -69 3 -4 37 -7 76 -7 67 -1 80 4 80
34 0 5 -20 8 -45 7 -25 -1 -45 0 -45 2 0 2 18 28 39 56 63 83 61 90 -31 90
-69 1 -78 -1 -78 -17z"/>
<path d="M5423 6533 l-28 -28 28 -3 c16 -2 35 2 42 8 17 14 45 6 45 -13 0 -7
-13 -14 -32 -15 -46 -4 -78 -27 -78 -58 0 -45 51 -75 91 -54 10 6 20 6 23 2 4
-7 44 -9 52 -3 1 1 -2 19 -6 41 -4 22 -4 43 1 46 4 2 6 10 4 17 -2 7 -6 24 -9
38 -6 29 -22 38 -73 46 -26 4 -38 -1 -60 -24z m87 -98 c0 -19 -25 -36 -44 -29
-32 12 -10 56 25 47 10 -3 19 -11 19 -18z"/>
<path d="M5751 6541 c-52 -39 -39 -149 20 -170 37 -13 68 -7 92 18 24 24 16
52 -12 44 -12 -3 -21 -9 -21 -13 0 -18 -32 -18 -49 -1 -17 17 -18 25 -9 60 12
45 24 50 57 22 26 -23 63 -17 53 7 -17 47 -89 65 -131 33z"/>
<path d="M5960 6554 c-17 -7 -40 -33 -40 -46 0 -12 48 -10 55 2 11 17 45 11
45 -8 0 -12 -9 -18 -27 -20 -58 -4 -88 -36 -76 -81 7 -26 56 -43 88 -31 28 11
30 8 13 -20 -22 -34 17 -71 52 -50 16 10 4 30 -17 30 -14 0 -13 4 4 23 18 19
20 33 18 96 -2 47 -8 78 -17 87 -16 16 -75 27 -98 18z m66 -120 c-4 -24 -34
-38 -51 -24 -21 17 -7 40 25 40 20 0 28 -5 26 -16z"/>
<path d="M6146 6538 c-47 -42 -37 -147 17 -167 35 -13 80 -3 99 21 10 13 18
26 18 31 0 12 -48 8 -57 -5 -4 -7 -16 -14 -25 -14 -19 -2 -39 43 -33 73 2 10
4 21 4 24 2 17 35 17 58 0 20 -16 53 -19 53 -5 0 22 -28 53 -52 58 -47 9 -55
8 -82 -16z"/>
<path d="M6353 6548 c-24 -12 -43 -55 -43 -100 0 -43 49 -87 92 -83 47 4 69
15 66 34 -4 16 -13 17 -54 8 -24 -6 -38 1 -46 24 -5 13 3 15 46 14 75 -2 76
-1 62 48 -17 59 -68 82 -123 55z m61 -34 c27 -10 19 -34 -12 -34 -35 0 -45 9
-31 27 13 15 20 16 43 7z"/>
<path d="M1671 6200 c-5 -3 -8 -1031 -7 -2285 l1 -2280 990 -1 c545 0 995 1
1000 3 8 3 12 194 6 274 -1 14 -86 15 -823 14 -453 0 -829 1 -835 3 -10 3 -13
429 -13 2086 l0 2081 2183 0 2182 0 2 -350 c1 -193 2 -364 2 -380 l1 -30 63 0
62 0 0 435 0 435 -2403 0 c-1322 0 -2407 -2 -2411 -5z"/>
<path d="M4290 5980 c0 -5 7 -10 16 -10 8 0 12 5 9 10 -3 6 -10 10 -16 10 -5
0 -9 -4 -9 -10z"/>
<path d="M3296 5955 c-3 -9 0 -15 9 -15 16 0 20 16 6 24 -5 3 -11 -1 -15 -9z"/>
<path d="M3883 5963 c-7 -2 -13 -11 -13 -18 0 -7 -6 -15 -12 -18 -10 -3 -10
-7 1 -20 7 -9 11 -24 7 -32 -6 -18 2 -45 15 -45 5 0 9 18 9 39 0 22 5 42 13
44 9 4 9 8 -2 15 -9 7 -10 12 -2 16 24 15 11 31 -16 19z"/>
<path d="M4870 5900 c0 -68 12 -91 25 -50 6 20 7 20 25 -2 25 -31 36 -16 14
18 -14 20 -15 29 -6 32 15 5 16 32 2 32 -6 0 -13 -7 -16 -15 -8 -19 -25 -9
-23 13 3 29 -1 42 -11 42 -6 0 -10 -30 -10 -70z"/>
<path d="M5737 5963 c-4 -3 -7 -14 -7 -24 0 -12 -5 -16 -15 -13 -17 7 -45 -18
-45 -41 0 -42 25 -57 80 -46 7 1 5 119 -1 126 -3 3 -9 2 -12 -2z m-7 -77 c0
-28 -10 -38 -27 -28 -13 8 1 52 17 52 5 0 10 -11 10 -24z"/>
<path d="M5920 5955 c-7 -9 -11 -18 -8 -20 3 -3 11 1 18 10 7 9 11 18 8 20 -3
3 -11 -1 -18 -10z"/>
<path d="M6078 5958 c-9 -29 -2 -122 10 -126 7 -2 12 5 12 19 l0 22 25 -23
c26 -24 33 -14 14 21 -8 15 -7 24 2 35 19 23 1 29 -22 8 -22 -19 -22 -19 -17
8 5 29 -16 60 -24 36z"/>
<path d="M3603 5948 c-16 -26 -10 -40 23 -60 39 -23 33 -49 -6 -28 -29 15 -41
3 -15 -16 17 -13 60 -12 74 1 12 12 -12 55 -34 61 -14 3 -25 12 -25 20 0 17
22 18 38 2 17 -17 28 -2 12 17 -15 18 -56 20 -67 3z"/>
<path d="M4254 5948 c-4 -7 26 -13 49 -9 12 2 8 -7 -20 -52 -14 -23 -26 -44
-26 -47 0 -3 21 -5 47 -6 33 -1 46 3 46 13 0 10 -6 12 -19 8 -32 -10 -35 14
-7 55 14 22 26 42 26 45 0 9 -90 2 -96 -7z"/>
<path d="M4965 5950 c3 -5 10 -10 16 -10 5 0 9 5 9 10 0 6 -7 10 -16 10 -8 0
-12 -4 -9 -10z"/>
<path d="M5566 5944 c-22 -22 -20 -77 3 -98 14 -13 28 -16 50 -11 26 5 31 11
31 36 0 24 -4 29 -25 29 -14 0 -25 -4 -25 -10 0 -5 8 -10 17 -10 16 0 16 -1 0
-17 -22 -22 -40 -6 -40 37 0 40 7 46 39 31 33 -15 46 -5 20 15 -26 18 -51 18
-70 -2z"/>
<path d="M3705 5941 c3 -5 1 -12 -5 -16 -7 -4 -7 -12 0 -25 6 -11 10 -23 9
-27 -5 -27 3 -42 21 -40 21 1 26 12 11 21 -11 7 -11 55 0 62 5 3 3 12 -5 20
-16 15 -41 19 -31 5z"/>
<path d="M3298 5917 c-8 -22 -3 -82 7 -82 12 0 17 83 5 90 -4 3 -10 -1 -12 -8z"/>
<path d="M3345 5922 c-9 -9 -5 -81 5 -87 10 -6 12 0 14 44 1 13 7 26 14 28 11
4 15 -11 15 -60 0 -10 5 -16 11 -14 6 2 11 18 11 35 0 18 5 34 12 36 17 7 24
-8 19 -38 -5 -27 8 -44 19 -26 9 14 10 69 1 77 -8 9 -113 13 -121 5z"/>
<path d="M3776 5914 c-9 -8 -16 -24 -16 -34 0 -25 29 -53 47 -46 8 3 19 6 24
6 6 0 7 5 4 10 -4 6 -15 8 -26 5 -11 -4 -19 -2 -19 4 0 6 11 11 24 11 33 0 39
12 20 38 -18 26 -37 28 -58 6z m39 -14 c3 -5 -3 -10 -15 -10 -12 0 -18 5 -15
10 3 6 10 10 15 10 5 0 12 -4 15 -10z"/>
<path d="M3929 5913 c-13 -15 -11 -16 14 -9 16 4 27 2 27 -4 0 -5 -9 -10 -19
-10 -23 0 -39 -39 -22 -50 7 -4 24 -6 39 -5 24 1 27 5 28 36 0 18 -4 40 -9 47
-13 17 -42 15 -58 -5z m41 -48 c0 -8 -4 -15 -10 -15 -5 0 -10 7 -10 15 0 8 5
15 10 15 6 0 10 -7 10 -15z"/>
<path d="M4019 5923 c0 -2 -1 -16 -1 -33 0 -61 1 -65 14 -52 7 7 12 24 13 39
0 33 25 44 26 11 1 -12 1 -31 0 -40 -1 -10 4 -18 13 -18 10 0 15 10 14 33 0
57 -6 65 -43 64 -19 -1 -35 -2 -36 -4z"/>
<path d="M4133 5923 c-21 -8 -15 -25 6 -18 11 3 22 1 26 -5 3 -5 -2 -10 -13
-10 -26 0 -43 -22 -32 -39 4 -8 22 -15 38 -16 26 -1 31 2 34 27 7 46 -22 76
-59 61z m32 -63 c-3 -5 -10 -10 -16 -10 -5 0 -9 5 -9 10 0 6 7 10 16 10 8 0
12 -4 9 -10z"/>
<path d="M4381 5921 c-21 -13 -22 -57 -1 -76 19 -17 60 -13 60 6 0 6 -9 8 -19
4 -11 -3 -22 -1 -26 5 -5 9 22 15 48 11 11 -2 8 13 -9 37 -16 23 -31 27 -53
13z m34 -21 c3 -5 -1 -10 -9 -10 -9 0 -16 5 -16 10 0 6 4 10 9 10 6 0 13 -4
16 -10z"/>
<path d="M4465 5915 c-2 -5 -3 -25 -2 -42 2 -39 22 -45 22 -6 1 15 6 28 13 31
7 2 12 10 12 17 0 16 -41 16 -45 0z"/>
<path d="M4541 5921 c-21 -14 -24 -51 -5 -73 28 -30 58 -20 69 23 10 42 -29
72 -64 50z m37 -23 c17 -17 -4 -53 -23 -38 -7 6 -11 20 -8 30 6 23 14 25 31 8z"/>
<path d="M4629 5925 c-4 -1 -5 -73 -1 -82 8 -23 22 -2 22 33 0 24 4 34 13 31
12 -4 14 -10 16 -56 1 -35 25 -11 26 26 0 14 6 28 13 30 8 3 12 -8 12 -34 0
-27 4 -40 14 -40 15 0 17 69 2 84 -5 6 -104 13 -117 8z"/>
<path d="M4782 5910 c-11 -17 -8 -21 21 -36 18 -10 26 -19 19 -22 -7 -2 -19 1
-26 8 -10 7 -16 8 -21 1 -3 -6 5 -16 19 -22 20 -9 29 -9 41 1 22 19 18 39 -10
46 -14 3 -25 10 -25 15 0 5 11 7 25 3 27 -7 35 10 9 20 -26 10 -39 7 -52 -14z"/>
<path d="M4968 5923 c-3 -7 -3 -40 1 -80 0 -7 6 -13 11 -13 6 0 10 23 10 50 0
43 -12 66 -22 43z"/>
<path d="M5026 5914 c-21 -21 -20 -60 2 -70 27 -12 62 -9 62 6 0 5 -10 9 -21
7 -12 -1 -24 3 -26 9 -2 7 5 10 20 7 32 -6 40 8 21 35 -18 26 -37 28 -58 6z
m39 -14 c3 -5 -1 -10 -9 -10 -9 0 -16 5 -16 10 0 6 4 10 9 10 6 0 13 -4 16
-10z"/>
<path d="M5114 5903 c-4 -13 -3 -34 0 -47 5 -19 12 -24 32 -21 31 3 18 -12
-14 -17 -22 -3 -22 -4 -4 -15 16 -9 24 -9 41 3 17 12 21 25 21 68 l0 54 -35
-1 c-28 -1 -37 -6 -41 -24z m56 -13 c0 -21 -13 -38 -26 -33 -14 5 -19 34 -8
46 8 7 34 -3 34 -13z"/>
<path d="M5221 5915 c-26 -34 -16 -67 26 -79 17 -5 26 -1 39 19 15 23 15 27 0
49 -16 25 -50 31 -65 11z m49 -34 c0 -23 -9 -31 -26 -24 -14 5 -19 34 -8 46
11 10 34 -5 34 -22z"/>
<path d="M5370 5906 c0 -13 5 -37 11 -53 10 -27 11 -27 24 -9 8 10 12 23 9 27
-3 5 0 9 5 9 10 0 15 -13 13 -32 -1 -3 5 -9 13 -12 10 -3 17 6 25 32 5 20 10
43 10 50 0 22 -18 12 -27 -15 l-10 -28 -6 28 c-9 34 -20 34 -34 0 -10 -25 -11
-26 -12 -6 -1 31 -21 40 -21 9z"/>
<path d="M5793 5923 c-24 -9 -13 -25 12 -19 14 4 25 2 25 -4 0 -5 -8 -10 -19
-10 -31 0 -45 -25 -25 -45 9 -9 23 -14 31 -11 8 3 20 6 27 6 13 0 15 65 2 77
-9 9 -38 12 -53 6z m37 -51 c0 -13 -12 -22 -22 -16 -10 6 -1 24 13 24 5 0 9
-4 9 -8z"/>
<path d="M5882 5915 c-5 -9 -6 -23 -3 -71 2 -30 25 -7 25 26 1 18 7 35 14 37
8 3 12 -8 12 -36 0 -31 3 -39 14 -35 12 5 15 33 7 86 -1 11 -62 5 -69 -7z"/>
<path d="M5998 5919 c-26 -14 -22 -36 7 -43 14 -4 25 -11 25 -16 0 -13 -7 -13
-31 0 -10 6 -19 7 -19 3 0 -17 16 -29 40 -28 37 0 41 41 6 55 -37 14 -32 23 6
14 29 -6 31 -5 19 10 -15 18 -29 20 -53 5z"/>
<path d="M6178 5923 c-2 -5 -3 -17 -2 -28 4 -63 3 -61 39 -61 37 1 39 5 36 60
-3 53 -17 51 -23 -3 -6 -51 -28 -52 -28 -2 0 36 -13 55 -22 34z"/>
<path d="M3500 5844 c0 -8 5 -12 10 -9 6 3 10 10 10 16 0 5 -4 9 -10 9 -5 0
-10 -7 -10 -16z"/>
<path d="M2595 5228 c-76 -9 -235 -54 -235 -67 0 -7 8 -18 63 -81 12 -14 51
-61 87 -105 36 -44 67 -82 70 -85 3 -3 17 -21 30 -40 13 -19 27 -37 30 -40 11
-9 90 -117 90 -123 0 -3 -37 -6 -82 -6 -86 -1 -116 -5 -183 -23 -22 -6 -47
-12 -55 -13 -8 -2 -16 -4 -17 -5 -4 -3 -20 -7 -33 -9 -16 -2 -12 -19 13 -44
36 -37 165 -195 240 -292 4 -5 15 -20 25 -32 10 -12 27 -34 38 -48 21 -29 69
-94 82 -110 129 -166 407 -602 569 -896 69 -125 312 -600 313 -614 1 -2 15
-35 32 -72 77 -171 115 -260 172 -403 26 -63 50 -124 55 -135 43 -98 204 -548
261 -730 17 -55 35 -108 40 -117 6 -10 10 -27 10 -37 0 -34 15 -31 32 7 10 21
41 89 71 152 76 164 225 451 271 525 7 11 14 25 15 30 1 6 13 24 27 42 13 17
24 34 24 37 0 7 184 294 213 331 4 6 38 53 76 105 38 52 73 100 78 105 5 6 31
39 58 75 28 36 53 67 56 70 3 3 30 34 60 70 124 151 318 354 505 530 81 76
332 292 389 335 22 16 46 35 53 42 66 64 508 376 752 530 80 51 150 97 157
102 7 6 15 11 17 11 3 0 29 15 59 33 82 50 81 50 282 165 202 116 270 154 377
211 37 19 66 37 64 39 -9 9 -412 24 -673 26 -106 0 -192 5 -190 10 3 8 263
171 347 217 25 13 47 26 50 30 3 3 32 20 65 39 33 18 80 44 104 58 25 14 67
38 93 53 27 16 51 29 54 29 13 0 157 90 144 91 -468 20 -1333 16 -1490 -6 -19
-3 -51 -8 -70 -11 -53 -7 -61 -9 -110 -23 -90 -26 -246 -106 -498 -256 -26
-16 -166 -109 -172 -115 -3 -3 -27 -21 -55 -40 -27 -19 -57 -40 -65 -47 -8 -6
-60 -47 -115 -89 -55 -43 -102 -81 -105 -84 -3 -3 -36 -32 -75 -65 -84 -73
-78 -67 -201 -186 -125 -121 -214 -216 -347 -368 -15 -17 -58 -71 -95 -119
-36 -48 -69 -89 -72 -92 -15 -14 -60 -80 -60 -88 0 -6 -4 -12 -8 -14 -11 -4
-82 -110 -157 -235 -47 -79 -64 -100 -73 -91 -7 7 -12 18 -12 24 0 7 -6 19
-13 26 -7 7 -28 40 -46 73 -18 33 -55 97 -82 141 -27 45 -49 87 -49 93 0 6 -4
11 -9 11 -5 0 -12 8 -15 18 -9 24 -201 348 -278 470 -10 15 -21 34 -25 42 -25
53 -360 574 -460 715 -133 188 -232 297 -292 322 -53 22 -119 29 -196 21z"/>
<path d="M4967 4594 c-1 -1 -31 -4 -67 -7 -67 -6 -81 -9 -165 -28 -74 -17
-206 -64 -277 -99 -62 -31 -179 -99 -188 -109 -3 -4 -23 -19 -45 -35 -35 -26
-199 -187 -233 -229 -75 -96 -185 -283 -176 -300 19 -34 140 -217 144 -217 3
0 25 42 49 92 24 51 59 116 77 145 19 30 34 57 34 62 0 5 3 11 8 13 4 2 25 26
46 53 148 189 366 324 638 395 27 7 58 21 70 32 20 17 138 123 172 153 6 6 28
24 48 42 21 18 34 34 30 37 -7 4 -159 5 -165 0z"/>
<path d="M6215 3454 c-55 -42 -108 -81 -117 -88 -15 -11 -15 -17 -3 -71 26
-110 36 -298 20 -375 -3 -14 -8 -38 -11 -55 -11 -63 -35 -146 -56 -192 -12
-26 -22 -50 -22 -53 -1 -3 -15 -30 -32 -60 -73 -128 -193 -259 -311 -338 -34
-23 -65 -42 -68 -42 -4 0 -20 -9 -36 -21 -16 -11 -35 -22 -42 -23 -7 -1 -17
-5 -23 -8 -32 -21 -185 -67 -269 -82 -92 -17 -258 -24 -350 -15 l-40 4 -57
-85 c-32 -47 -62 -90 -68 -97 -17 -20 -11 -32 18 -39 15 -3 35 -8 45 -11 60
-16 209 -31 318 -31 109 0 177 8 302 33 58 12 184 55 245 85 35 17 68 31 75
33 7 1 14 4 17 8 3 3 23 16 45 29 112 67 255 192 340 296 138 170 241 398 270
594 4 25 9 58 11 75 11 67 6 211 -10 325 -11 78 -73 280 -86 280 -3 0 -50 -35
-105 -76z"/>
</g>
</svg>
