<svg width="200" height="152" viewBox="0 0 200 152" fill="none" xmlns="http://www.w3.org/2000/svg">
<path d="M49.7283 20.9H41.5761V135.171H49.7283V20.9Z" fill="#232C33"/>
<path d="M162.228 20.9H41.5761V23.6143H162.228V20.9Z" fill="#232C33"/>
<path d="M162.228 20.9H158.967V42.6143H162.228V20.9Z" fill="#232C33"/>
<path d="M91.5761 127.843H41.5761V135.171H91.5761V127.843Z" fill="#232C33"/>
<path d="M95.2446 81.1571C102.717 65.9571 116.033 60.5286 128.668 61.0714L121.467 67.45C110.462 70.0286 103.668 75.5928 99.0489 86.9928L95.2446 81.1571Z" fill="#232C33"/>
<path d="M121.332 125.129C143.75 127.571 157.065 109.657 152.038 92.15L158.016 87.6714C168.207 110.743 146.603 138.157 117.799 130.421L121.332 125.129Z" fill="#232C33"/>
<path d="M68.2065 59.0357C63.587 58.7643 62.3641 59.3072 58.5598 60.3929C78.8043 83.6 93.9927 112.297 105.571 149.421C123.234 108.571 150 84.55 196.467 59.7143C187.772 59.3072 183.03 59.0889 174.185 59.0357H172.011C136.268 80.1379 121.735 95.994 105.707 131.507C96.7791 101.033 89.2334 85.1328 70.9239 59.0357H68.2065Z" fill="#232C33"/>
<path d="M196.467 46.0071C152.174 69.8929 122.147 95.2714 105.707 135.986L104.891 134.086C92.663 95.6786 77.038 67.7214 58.8315 46.9571C63.0726 45.1106 67.1196 44.65 69.9728 45.8714C73.7772 47.5 84.7826 64.6 102.038 94.5929C115.625 70.4357 138.723 53.6156 152.717 47.5C159.239 44.65 178.675 45.6312 196.467 46.0071Z" fill="#FEE440"/>
<path d="M82.9484 30.1286H82.3326V27.8342H82.9484V30.1286ZM82.2967 27.2403C82.2967 27.1486 82.3272 27.0729 82.388 27.0135C82.4503 26.9541 82.5345 26.9244 82.6405 26.9244C82.7454 26.9244 82.8288 26.9541 82.891 27.0135C82.9533 27.0729 82.9845 27.1486 82.9845 27.2403C82.9845 27.3337 82.9527 27.4099 82.8889 27.4694C82.8266 27.5288 82.7438 27.5584 82.6405 27.5584C82.5372 27.5584 82.4538 27.5288 82.3899 27.4694C82.3277 27.4099 82.2967 27.3337 82.2967 27.2403ZM84.0875 27.8342L84.1068 28.0907C84.2696 27.8915 84.4897 27.7918 84.7668 27.7918C85.0628 27.7918 85.2658 27.9083 85.3764 28.1417C85.5375 27.9083 85.7677 27.7918 86.0663 27.7918C86.3152 27.7918 86.5008 27.8646 86.6226 28.0101C86.744 28.1545 86.8049 28.3722 86.8049 28.6634V30.1286H86.1894V28.6653C86.1894 28.5353 86.1639 28.4406 86.113 28.3811C86.062 28.3206 85.972 28.2902 85.8432 28.2902C85.6592 28.2902 85.5318 28.3776 85.4611 28.5529L85.4633 30.1286H84.8497V28.6675C84.8497 28.5347 84.8236 28.4384 84.7712 28.3792C84.7188 28.3198 84.6296 28.2902 84.5038 28.2902C84.3296 28.2902 84.2035 28.3621 84.1258 28.5062V30.1286H83.5122V27.8342H84.0875ZM87.3668 29.8276C87.3668 29.7298 87.3995 29.6509 87.4644 29.5901C87.531 29.5293 87.6139 29.4989 87.7128 29.4989C87.8133 29.4989 87.8962 29.5293 87.9611 29.5901C88.0277 29.6509 88.0609 29.7298 88.0609 29.8276C88.0609 29.9236 88.0285 30.0021 87.9633 30.0629C87.8981 30.1223 87.8147 30.1519 87.7128 30.1519C87.6122 30.1519 87.5296 30.1223 87.4644 30.0629C87.3995 30.0021 87.3668 29.9236 87.3668 29.8276ZM91.4391 29.3186C91.4391 29.1984 91.3967 29.1064 91.3117 29.0429C91.2269 28.9777 91.0739 28.9099 90.8533 28.8393C90.6323 28.7671 90.4576 28.6965 90.3288 28.6273C89.9777 28.4378 89.8024 28.1827 89.8024 27.8616C89.8024 27.6949 89.8492 27.5465 89.9424 27.4165C90.0372 27.2848 90.1726 27.1825 90.3478 27.1089C90.5247 27.0354 90.7231 26.9987 90.9424 26.9987C91.163 26.9987 91.3598 27.039 91.5326 27.1195C91.7052 27.1988 91.8389 27.3111 91.9337 27.4566C92.0302 27.6024 92.0783 27.7677 92.0783 27.9528H91.4413C91.4413 27.8117 91.3967 27.702 91.3076 27.6241C91.2185 27.5451 91.0932 27.5055 90.9318 27.5055C90.7761 27.5055 90.6552 27.5386 90.5687 27.6051C90.4823 27.6702 90.4391 27.7563 90.4391 27.8638C90.4391 27.9642 90.4894 28.0483 90.5899 28.1162C90.6918 28.1841 90.8413 28.2476 91.038 28.307C91.4003 28.4159 91.6641 28.551 91.8299 28.712C91.9954 28.8732 92.0783 29.0741 92.0783 29.3143C92.0783 29.5814 91.9769 29.7915 91.7745 29.944C91.5723 30.0955 91.2997 30.1709 90.9573 30.1709C90.7196 30.1709 90.503 30.1278 90.3076 30.0417C90.1122 29.954 89.963 29.8346 89.8598 29.6832C89.7579 29.532 89.7068 29.3566 89.7068 29.1574H90.3459C90.3459 29.498 90.5497 29.6685 90.9573 29.6685C91.1087 29.6685 91.2269 29.6381 91.3117 29.5773C91.3967 29.5151 91.4391 29.4288 91.4391 29.3186ZM93.262 27.2702V27.8342H93.6546V28.2837H93.262V29.4288C93.262 29.5135 93.2783 29.5743 93.3109 29.6112C93.3435 29.6479 93.4057 29.6663 93.4976 29.6663C93.5655 29.6663 93.6258 29.6614 93.678 29.6514V30.1158C93.5579 30.1527 93.434 30.1709 93.3065 30.1709C92.8764 30.1709 92.6571 29.954 92.6484 29.52V28.2837H92.313V27.8342H92.6484V27.2702H93.262ZM95.1103 30.1709C94.7734 30.1709 94.4989 30.0678 94.2867 29.8615C94.0758 29.6549 93.9704 29.38 93.9704 29.0366V28.9772C93.9704 28.7467 94.0149 28.541 94.1041 28.3599C94.1932 28.1775 94.319 28.0378 94.4818 27.9403C94.6459 27.8412 94.8329 27.7918 95.0424 27.7918C95.3565 27.7918 95.6035 27.8906 95.7831 28.0885C95.9644 28.2867 96.0549 28.567 96.0549 28.9305V29.1807H94.5924C94.612 29.3306 94.6715 29.4508 94.7707 29.5412C94.8712 29.6316 94.9978 29.6769 95.1505 29.6769C95.387 29.6769 95.5717 29.5914 95.7046 29.4204L96.0062 29.7575C95.9141 29.8875 95.7897 29.9893 95.6326 30.0629C95.4755 30.1348 95.3014 30.1709 95.1103 30.1709ZM95.0402 28.288C94.9185 28.288 94.8196 28.329 94.7429 28.411C94.6679 28.4929 94.6198 28.6102 94.5986 28.763H95.4522V28.7142C95.4492 28.5784 95.4125 28.4739 95.3416 28.4004C95.2709 28.3255 95.1704 28.288 95.0402 28.288ZM96.6296 30.1286V28.2837H96.2878V27.8342H96.6296V27.639C96.6296 27.3817 96.703 27.1825 96.8503 27.0411C96.9989 26.8983 97.2062 26.8269 97.4723 26.8269C97.5573 26.8269 97.6614 26.841 97.7845 26.8693L97.778 27.3443C97.7272 27.3315 97.6649 27.3253 97.5913 27.3253C97.3606 27.3253 97.2451 27.4333 97.2451 27.6496V27.8342H97.7016V28.2837H97.2451V30.1286H96.6296ZM99.4076 30.1286C99.3793 30.0735 99.359 30.0048 99.3462 29.9228C99.1975 30.0884 99.0043 30.1709 98.7666 30.1709C98.5416 30.1709 98.3546 30.106 98.206 29.976C98.059 29.8457 97.9853 29.6818 97.9853 29.4839C97.9853 29.2407 98.0753 29.0543 98.2549 28.924C98.4361 28.794 98.6973 28.7283 99.0383 28.7269H99.3206V28.5955C99.3206 28.4894 99.2929 28.4045 99.2378 28.3409C99.184 28.2774 99.0984 28.2454 98.981 28.2454C98.8777 28.2454 98.7962 28.2704 98.7369 28.3198C98.6788 28.3692 98.6497 28.437 98.6497 28.5233H98.0361C98.0361 28.3903 98.0772 28.2674 98.1595 28.1545C98.2416 28.0413 98.3576 27.9528 98.5076 27.8893C98.6576 27.8241 98.8261 27.7918 99.0128 27.7918C99.2959 27.7918 99.5201 27.8632 99.6859 28.006C99.8527 28.1474 99.9364 28.3466 99.9364 28.604V29.5985C99.9378 29.8162 99.9682 29.9809 100.028 30.0925V30.1286H99.4076ZM98.9003 29.7024C98.9908 29.7024 99.0745 29.6826 99.1508 29.643C99.2272 29.602 99.284 29.5474 99.3206 29.4796V29.0852H99.0913C98.7842 29.0852 98.6206 29.1913 98.6011 29.4033L98.5989 29.4394C98.5989 29.5157 98.6258 29.5787 98.6796 29.6281C98.7331 29.6777 98.8068 29.7024 98.9003 29.7024ZM101.029 27.8342L101.048 28.0991C101.212 27.8942 101.432 27.7918 101.708 27.7918C101.952 27.7918 102.133 27.8632 102.252 28.006C102.371 28.1488 102.432 28.3621 102.434 28.6463V30.1286H101.821V28.6612C101.821 28.5312 101.792 28.437 101.736 28.3792C101.679 28.3198 101.585 28.2902 101.454 28.2902C101.281 28.2902 101.151 28.3635 101.065 28.5106V30.1286H100.451V27.8342H101.029ZM104.289 30.1286C104.261 30.0735 104.24 30.0048 104.227 29.9228C104.079 30.0884 103.886 30.1709 103.648 30.1709C103.423 30.1709 103.236 30.106 103.087 29.976C102.94 29.8457 102.867 29.6818 102.867 29.4839C102.867 29.2407 102.956 29.0543 103.136 28.924C103.317 28.794 103.579 28.7283 103.92 28.7269H104.202V28.5955C104.202 28.4894 104.174 28.4045 104.119 28.3409C104.065 28.2774 103.98 28.2454 103.862 28.2454C103.759 28.2454 103.677 28.2704 103.618 28.3198C103.56 28.3692 103.531 28.437 103.531 28.5233H102.917C102.917 28.3903 102.958 28.2674 103.04 28.1545C103.123 28.0413 103.239 27.9528 103.389 27.8893C103.539 27.8241 103.707 27.7918 103.894 27.7918C104.177 27.7918 104.401 27.8632 104.567 28.006C104.734 28.1474 104.817 28.3466 104.817 28.604V29.5985C104.819 29.8162 104.849 29.9809 104.909 30.0925V30.1286H104.289ZM103.782 29.7024C103.872 29.7024 103.956 29.6826 104.032 29.643C104.108 29.602 104.165 29.5474 104.202 29.4796V29.0852H103.973C103.665 29.0852 103.502 29.1913 103.482 29.4033L103.48 29.4394C103.48 29.5157 103.507 29.5787 103.561 29.6281C103.614 29.6777 103.688 29.7024 103.782 29.7024ZM107.2 29.6175H108.758V30.1286H106.404V29.7554L107.932 27.5562H106.406V27.0411H108.724V27.4059L107.2 29.6175ZM107.582 26.231C107.68 26.231 107.756 26.2586 107.811 26.3137C107.868 26.3674 107.896 26.4367 107.896 26.5215C107.896 26.6063 107.868 26.6756 107.811 26.7294C107.756 26.7831 107.68 26.8099 107.582 26.8099C107.486 26.8099 107.41 26.7831 107.353 26.7294C107.296 26.6756 107.268 26.6063 107.268 26.5215C107.268 26.4367 107.296 26.3674 107.353 26.3137C107.411 26.2586 107.487 26.231 107.582 26.231ZM110.188 30.1709C109.851 30.1709 109.577 30.0678 109.365 29.8615C109.154 29.6549 109.048 29.38 109.048 29.0366V28.9772C109.048 28.7467 109.093 28.541 109.182 28.3599C109.271 28.1775 109.397 28.0378 109.56 27.9403C109.724 27.8412 109.911 27.7918 110.12 27.7918C110.435 27.7918 110.682 27.8906 110.861 28.0885C111.042 28.2867 111.133 28.567 111.133 28.9305V29.1807H109.67C109.69 29.3306 109.749 29.4508 109.849 29.5412C109.949 29.6316 110.076 29.6769 110.229 29.6769C110.465 29.6769 110.65 29.5914 110.783 29.4204L111.084 29.7575C110.992 29.8875 110.868 29.9893 110.711 30.0629C110.554 30.1348 110.379 30.1709 110.188 30.1709ZM110.118 28.288C109.996 28.288 109.898 28.329 109.821 28.411C109.746 28.4929 109.698 28.6102 109.677 28.763H110.53V28.7142C110.527 28.5784 110.49 28.4739 110.42 28.4004C110.349 28.3255 110.248 28.288 110.118 28.288ZM112.831 28.4088C112.747 28.3974 112.674 28.392 112.61 28.392C112.378 28.392 112.226 28.4704 112.154 28.6273V30.1286H111.54V27.8342H112.12L112.136 28.1078C112.259 27.8972 112.43 27.7918 112.648 27.7918C112.716 27.7918 112.78 27.8008 112.839 27.8193L112.831 28.4088ZM113.012 28.9601C113.012 28.7326 113.056 28.5296 113.144 28.3515C113.232 28.1735 113.358 28.0356 113.522 27.9381C113.687 27.8404 113.879 27.7918 114.097 27.7918C114.407 27.7918 114.66 27.8866 114.855 28.076C115.052 28.2652 115.161 28.5225 115.184 28.8477L115.188 29.0046C115.188 29.3566 115.09 29.6395 114.893 29.8528C114.697 30.0651 114.433 30.1709 114.101 30.1709C113.77 30.1709 113.506 30.0651 113.308 29.8528C113.111 29.6408 113.012 29.3526 113.012 28.9878V28.9601ZM113.626 29.0046C113.626 29.2223 113.667 29.3892 113.749 29.5051C113.831 29.6196 113.949 29.6769 114.101 29.6769C114.25 29.6769 114.366 29.6205 114.45 29.5073C114.533 29.3927 114.575 29.2103 114.575 28.9601C114.575 28.7467 114.533 28.5812 114.45 28.4639C114.366 28.3466 114.249 28.288 114.097 28.288C113.947 28.288 113.831 28.3466 113.749 28.4639C113.667 28.5798 113.626 28.76 113.626 29.0046ZM116.198 27.8342L116.217 28.0907C116.38 27.8915 116.6 27.7918 116.877 27.7918C117.173 27.7918 117.376 27.9083 117.487 28.1417C117.648 27.9083 117.878 27.7918 118.177 27.7918C118.426 27.7918 118.611 27.8646 118.733 28.0101C118.855 28.1545 118.915 28.3722 118.915 28.6634V30.1286H118.3V28.6653C118.3 28.5353 118.274 28.4406 118.223 28.3811C118.173 28.3206 118.083 28.2902 117.954 28.2902C117.77 28.2902 117.642 28.3776 117.572 28.5529L117.574 30.1286H116.96V28.6675C116.96 28.5347 116.934 28.4384 116.882 28.3792C116.829 28.3198 116.74 28.2902 116.614 28.2902C116.44 28.2902 116.314 28.3621 116.236 28.5062V30.1286H115.623V27.8342H116.198ZM120.69 29.4945C120.69 29.4196 120.652 29.361 120.577 29.3186C120.504 29.2747 120.385 29.2358 120.22 29.2019C119.674 29.0874 119.401 28.8556 119.401 28.5062C119.401 28.3027 119.485 28.133 119.654 27.9973C119.823 27.8602 120.045 27.7918 120.318 27.7918C120.609 27.7918 120.842 27.8602 121.017 27.9973C121.192 28.1347 121.28 28.3127 121.28 28.5318H120.666C120.666 28.4441 120.638 28.3722 120.581 28.3154C120.525 28.2576 120.436 28.2286 120.316 28.2286C120.212 28.2286 120.133 28.2519 120.076 28.2986C120.019 28.3453 119.991 28.4045 119.991 28.4767C119.991 28.5445 120.023 28.5996 120.087 28.642C120.152 28.6829 120.261 28.719 120.414 28.7503C120.566 28.7798 120.695 28.8138 120.8 28.852C121.124 28.9707 121.286 29.1764 121.286 29.469C121.286 29.6783 121.196 29.8479 121.017 29.9779C120.837 30.1066 120.605 30.1709 120.32 30.1709C120.128 30.1709 119.957 30.137 119.807 30.0691C119.658 29.9999 119.541 29.906 119.456 29.7871C119.371 29.6669 119.329 29.5377 119.329 29.399H119.91C119.916 29.5081 119.957 29.5914 120.032 29.6492C120.107 29.7073 120.207 29.7364 120.333 29.7364C120.45 29.7364 120.539 29.7144 120.598 29.6704C120.659 29.6253 120.69 29.5667 120.69 29.4945ZM122.574 29.2082L122.353 29.4288V30.1286H121.74V26.8714H122.353V28.6759L122.472 28.5233L123.06 27.8342H123.797L122.967 28.7904L123.869 30.1286H123.164L122.574 29.2082ZM124.766 30.1286H124.151V27.8342H124.766V30.1286ZM124.114 27.2403C124.114 27.1486 124.145 27.0729 124.206 27.0135C124.268 26.9541 124.352 26.9244 124.458 26.9244C124.563 26.9244 124.646 26.9541 124.709 27.0135C124.771 27.0729 124.802 27.1486 124.802 27.2403C124.802 27.3337 124.77 27.4099 124.707 27.4694C124.645 27.5288 124.562 27.5584 124.458 27.5584C124.355 27.5584 124.271 27.5288 124.208 27.4694C124.146 27.4099 124.114 27.3337 124.114 27.2403ZM126.387 30.1709C126.051 30.1709 125.776 30.0678 125.564 29.8615C125.353 29.6549 125.247 29.38 125.247 29.0366V28.9772C125.247 28.7467 125.292 28.541 125.381 28.3599C125.47 28.1775 125.596 28.0378 125.759 27.9403C125.923 27.8412 126.11 27.7918 126.319 27.7918C126.634 27.7918 126.88 27.8906 127.06 28.0885C127.242 28.2867 127.332 28.567 127.332 28.9305V29.1807H125.869C125.889 29.3306 125.949 29.4508 126.048 29.5412C126.148 29.6316 126.275 29.6769 126.428 29.6769C126.664 29.6769 126.849 29.5914 126.982 29.4204L127.283 29.7575C127.191 29.8875 127.067 29.9893 126.91 30.0629C126.752 30.1348 126.578 30.1709 126.387 30.1709ZM126.317 28.288C126.196 28.288 126.096 28.329 126.02 28.411C125.945 28.4929 125.897 28.6102 125.876 28.763H126.729V28.7142C126.726 28.5784 126.689 28.4739 126.619 28.4004C126.548 28.3255 126.448 28.288 126.317 28.288ZM127.65 28.9644C127.65 28.6124 127.733 28.329 127.9 28.114C128.068 27.8991 128.295 27.7918 128.58 27.7918C128.832 27.7918 129.027 27.8779 129.168 28.0505L129.193 27.8342H129.749V30.0523C129.749 30.2529 129.703 30.4277 129.611 30.5759C129.521 30.7244 129.393 30.8375 129.227 30.9152C129.061 30.9931 128.868 31.0319 128.645 31.0319C128.477 31.0319 128.313 30.998 128.153 30.9301C127.993 30.8636 127.872 30.7776 127.79 30.6714L128.061 30.2982C128.214 30.4692 128.4 30.5547 128.618 30.5547C128.78 30.5547 128.907 30.511 128.998 30.4233C129.088 30.337 129.134 30.2141 129.134 30.0545V29.9312C128.992 30.0911 128.806 30.1709 128.575 30.1709C128.299 30.1709 128.076 30.0634 127.904 29.8487C127.734 29.6324 127.65 29.346 127.65 28.9899V28.9644ZM128.263 29.0089C128.263 29.2168 128.305 29.38 128.389 29.4989C128.472 29.6161 128.587 29.6747 128.732 29.6747C128.919 29.6747 129.053 29.6047 129.134 29.4649V28.5C129.052 28.3599 128.919 28.2902 128.737 28.2902C128.589 28.2902 128.473 28.3502 128.389 28.4704C128.305 28.5904 128.263 28.7701 128.263 29.0089ZM130.184 28.9601C130.184 28.7326 130.227 28.5296 130.315 28.3515C130.403 28.1735 130.529 28.0356 130.693 27.9381C130.859 27.8404 131.051 27.7918 131.268 27.7918C131.579 27.7918 131.831 27.8866 132.026 28.076C132.223 28.2652 132.333 28.5225 132.355 28.8477L132.36 29.0046C132.36 29.3566 132.261 29.6395 132.065 29.8528C131.868 30.0651 131.604 30.1709 131.273 30.1709C130.942 30.1709 130.677 30.0651 130.479 29.8528C130.282 29.6408 130.184 29.3526 130.184 28.9878V28.9601ZM130.797 29.0046C130.797 29.2223 130.838 29.3892 130.92 29.5051C131.002 29.6196 131.12 29.6769 131.273 29.6769C131.421 29.6769 131.537 29.6205 131.621 29.5073C131.704 29.3927 131.746 29.2103 131.746 28.9601C131.746 28.7467 131.704 28.5812 131.621 28.4639C131.537 28.3466 131.42 28.288 131.268 28.288C131.118 28.288 131.002 28.3466 130.92 28.4639C130.838 28.5798 130.797 28.76 130.797 29.0046Z" fill="#232C33"/>
<path d="M136.201 29.2953L136.502 27.8342H137.095L136.509 30.1286H135.995L135.56 28.6846L135.124 30.1286H134.613L134.027 27.8342H134.619L134.918 29.2931L135.339 27.8342H135.783L136.201 29.2953ZM141.256 29.7383C141.141 29.8756 140.979 29.9823 140.77 30.0585C140.56 30.1335 140.328 30.1709 140.073 30.1709C139.806 30.1709 139.571 30.1131 139.368 29.9972C139.168 29.8797 139.012 29.71 138.902 29.4883C138.793 29.2662 138.737 29.0054 138.734 28.7057V28.4957C138.734 28.1876 138.785 27.921 138.889 27.6963C138.993 27.4702 139.143 27.2976 139.339 27.179C139.536 27.0587 139.765 26.9987 140.029 26.9987C140.395 26.9987 140.682 27.0863 140.889 27.2617C141.095 27.4355 141.218 27.6892 141.256 28.0228H140.636C140.608 27.8461 140.545 27.7169 140.447 27.6347C140.351 27.5527 140.218 27.5117 140.048 27.5117C139.831 27.5117 139.667 27.5932 139.553 27.7557C139.44 27.9183 139.383 28.1599 139.381 28.481V28.6781C139.381 29.0019 139.443 29.2464 139.566 29.4117C139.689 29.5773 139.87 29.6598 140.107 29.6598C140.346 29.6598 140.517 29.6091 140.619 29.5073V28.975H140.039V28.5062H141.256V29.7383ZM141.782 28.9644C141.782 28.6067 141.861 28.3219 142.021 28.1097C142.183 27.8977 142.403 27.7918 142.682 27.7918C142.905 27.7918 143.09 27.8752 143.236 28.0418V26.8714H143.851V30.1286H143.297L143.268 29.8848C143.115 30.0756 142.918 30.1709 142.677 30.1709C142.407 30.1709 142.19 30.0651 142.026 29.8528C141.863 29.6395 141.782 29.3433 141.782 28.9644ZM142.395 29.0089C142.395 29.2239 142.433 29.3884 142.508 29.5029C142.583 29.6175 142.692 29.6747 142.835 29.6747C143.024 29.6747 143.158 29.5949 143.236 29.4351V28.5296C143.159 28.37 143.027 28.2902 142.839 28.2902C142.543 28.2902 142.395 28.5296 142.395 29.0089ZM145.801 30.1286C145.773 30.0735 145.753 30.0048 145.74 29.9228C145.591 30.0884 145.398 30.1709 145.16 30.1709C144.935 30.1709 144.748 30.106 144.6 29.976C144.453 29.8457 144.379 29.6818 144.379 29.4839C144.379 29.2407 144.469 29.0543 144.649 28.924C144.83 28.794 145.091 28.7283 145.432 28.7269H145.714V28.5955C145.714 28.4894 145.687 28.4045 145.632 28.3409C145.578 28.2774 145.492 28.2454 145.375 28.2454C145.271 28.2454 145.19 28.2704 145.131 28.3198C145.073 28.3692 145.043 28.437 145.043 28.5233H144.43C144.43 28.3903 144.471 28.2674 144.553 28.1545C144.635 28.0413 144.751 27.9528 144.901 27.8893C145.051 27.8241 145.22 27.7918 145.407 27.7918C145.69 27.7918 145.914 27.8632 146.08 28.006C146.247 28.1474 146.33 28.3466 146.33 28.604V29.5985C146.332 29.8162 146.362 29.9809 146.421 30.0925V30.1286H145.801ZM145.294 29.7024C145.385 29.7024 145.468 29.6826 145.545 29.643C145.621 29.602 145.678 29.5474 145.714 29.4796V29.0852H145.485C145.178 29.0852 145.015 29.1913 144.995 29.4033L144.993 29.4394C144.993 29.5157 145.02 29.5787 145.073 29.6281C145.127 29.6777 145.201 29.7024 145.294 29.7024ZM147.51 27.8342L147.529 28.0991C147.693 27.8942 147.913 27.7918 148.189 27.7918C148.432 27.7918 148.614 27.8632 148.732 28.006C148.851 28.1488 148.912 28.3621 148.915 28.6463V30.1286H148.301V28.6612C148.301 28.5312 148.273 28.437 148.217 28.3792C148.16 28.3198 148.066 28.2902 147.934 28.2902C147.761 28.2902 147.632 28.3635 147.546 28.5106V30.1286H146.932V27.8342H147.51ZM148.053 26.8714H148.722L148.134 27.5288H147.635L148.053 26.8714ZM150.77 29.4945C150.77 29.4196 150.732 29.361 150.657 29.3186C150.583 29.2747 150.465 29.2358 150.3 29.2019C149.754 29.0874 149.481 28.8556 149.481 28.5062C149.481 28.3027 149.565 28.133 149.734 27.9973C149.904 27.8602 150.125 27.7918 150.398 27.7918C150.69 27.7918 150.923 27.8602 151.096 27.9973C151.272 28.1347 151.36 28.3127 151.36 28.5318H150.746C150.746 28.4441 150.718 28.3722 150.661 28.3154C150.605 28.2576 150.516 28.2286 150.396 28.2286C150.293 28.2286 150.213 28.2519 150.156 28.2986C150.099 28.3453 150.071 28.4045 150.071 28.4767C150.071 28.5445 150.103 28.5996 150.167 28.642C150.232 28.6829 150.341 28.719 150.493 28.7503C150.646 28.7798 150.775 28.8138 150.88 28.852C151.204 28.9707 151.366 29.1764 151.366 29.469C151.366 29.6783 151.276 29.8479 151.096 29.9779C150.917 30.1066 150.685 30.1709 150.4 30.1709C150.208 30.1709 150.036 30.137 149.886 30.0691C149.738 29.9999 149.621 29.906 149.536 29.7871C149.451 29.6669 149.409 29.5377 149.409 29.399H149.99C149.996 29.5081 150.036 29.5914 150.111 29.6492C150.186 29.7073 150.287 29.7364 150.413 29.7364C150.53 29.7364 150.619 29.7144 150.678 29.6704C150.739 29.6253 150.77 29.5667 150.77 29.4945ZM152.741 29.2082L152.52 29.4288V30.1286H151.907V26.8714H152.52V28.6759L152.639 28.5233L153.227 27.8342H153.964L153.134 28.7904L154.036 30.1286H153.331L152.741 29.2082ZM155.748 29.8954C155.597 30.0792 155.388 30.1709 155.12 30.1709C154.874 30.1709 154.685 30.1003 154.555 29.9589C154.426 29.8175 154.361 29.6104 154.358 29.3376V27.8342H154.971V29.3165C154.971 29.5553 155.08 29.6747 155.298 29.6747C155.506 29.6747 155.649 29.6025 155.727 29.4584V27.8342H156.343V30.1286H155.765L155.748 29.8954Z" fill="#232C33"/>
<path d="M55.4155 15.7745H58.2046V16.8286H54.1019V10.4606H55.4155V15.7745ZM60.4207 16.8286H59.1508V12.0963H60.4207V16.8286ZM59.0764 10.8717C59.0764 10.6822 59.1391 10.5262 59.2647 10.4038C59.3932 10.2813 59.5668 10.22 59.7856 10.22C60.0016 10.22 60.1739 10.2813 60.3024 10.4038C60.4307 10.5262 60.4951 10.6822 60.4951 10.8717C60.4951 11.0642 60.4293 11.2216 60.2981 11.3441C60.1696 11.4665 59.9989 11.5278 59.7856 11.5278C59.5726 11.5278 59.4003 11.4665 59.269 11.3441C59.1405 11.2216 59.0764 11.0642 59.0764 10.8717ZM63.6437 15.897C63.8772 15.897 64.0671 15.8328 64.213 15.7046C64.359 15.5763 64.4348 15.4057 64.4408 15.1928H65.6272C65.6242 15.5136 65.5367 15.8081 65.3644 16.0763C65.1924 16.3417 64.956 16.5487 64.6552 16.6974C64.3573 16.8432 64.0277 16.9161 63.6655 16.9161C62.9883 16.9161 62.4541 16.7017 62.063 16.2731C61.672 15.8416 61.4764 15.2468 61.4764 14.4887V14.4056C61.4764 13.6767 61.6704 13.095 62.0587 12.6605C62.447 12.2261 62.9796 12.0089 63.6568 12.0089C64.2495 12.0089 64.7239 12.178 65.0799 12.5162C65.4389 12.8515 65.6215 13.2991 65.6272 13.8589H64.4408C64.4348 13.614 64.359 13.4157 64.213 13.2641C64.0671 13.1095 63.8745 13.0323 63.6351 13.0323C63.3402 13.0323 63.1168 13.1402 62.9649 13.3559C62.8163 13.5688 62.7418 13.9158 62.7418 14.3968V14.5281C62.7418 15.015 62.8163 15.3649 62.9649 15.5777C63.1139 15.7906 63.3402 15.897 63.6437 15.897ZM68.7364 16.9161C68.0418 16.9161 67.4755 16.7032 67.0375 16.2775C66.6027 15.8518 66.3853 15.2847 66.3853 14.5762V14.4537C66.3853 13.9784 66.4772 13.5542 66.6611 13.181C66.8448 12.8049 67.1046 12.5162 67.4405 12.315C67.7791 12.1109 68.1644 12.0089 68.5965 12.0089C69.2443 12.0089 69.7538 12.213 70.1245 12.6212C70.4981 13.0294 70.6851 13.6082 70.6851 14.3575V14.8736H67.6682C67.709 15.1826 67.8315 15.4305 68.0359 15.6171C68.2432 15.8037 68.5043 15.897 68.8196 15.897C69.3071 15.897 69.688 15.7206 69.9625 15.3678L70.5842 16.0632C70.3946 16.3315 70.1378 16.5414 69.8136 16.693C69.4897 16.8417 69.1307 16.9161 68.7364 16.9161ZM68.5921 13.0323C68.341 13.0323 68.1367 13.1168 67.9791 13.2859C67.8242 13.4551 67.725 13.6971 67.6812 14.012H69.4416V13.9114C69.4356 13.6315 69.3598 13.4157 69.2139 13.2641C69.0679 13.1095 68.8606 13.0323 68.5921 13.0323ZM74.4511 16.3475C74.1386 16.7265 73.7068 16.9161 73.1549 16.9161C72.647 16.9161 72.2587 16.7703 71.9902 16.4787C71.7247 16.1871 71.5889 15.76 71.5832 15.1972V12.0963H72.8484V15.1535C72.8484 15.6462 73.0734 15.8926 73.5228 15.8926C73.9519 15.8926 74.2467 15.7439 74.4073 15.4465V12.0963H75.6772V16.8286H74.4861L74.4511 16.3475ZM78.0245 12.0963L78.0639 12.6255C78.3995 12.2144 78.8535 12.0089 79.4255 12.0089C80.0356 12.0089 80.4546 12.2494 80.6823 12.7305C81.0149 12.2494 81.4894 12.0089 82.1054 12.0089C82.619 12.0089 83.0014 12.159 83.2524 12.4593C83.5035 12.7567 83.6291 13.2058 83.6291 13.8064V16.8286H82.3592V13.8108C82.3592 13.5426 82.3068 13.3472 82.2016 13.2247C82.0965 13.0993 81.9111 13.0367 81.6457 13.0367C81.266 13.0367 81.0033 13.2174 80.8573 13.579L80.8617 16.8286H79.5965V13.8151C79.5965 13.5411 79.5424 13.3428 79.4342 13.2203C79.3264 13.0979 79.1424 13.0367 78.8826 13.0367C78.5236 13.0367 78.2639 13.1854 78.1033 13.4828V16.8286H76.8378V12.0963H78.0245ZM92.5712 13.7889C92.5712 14.4158 92.4601 14.9654 92.2383 15.4378C92.0166 15.9101 91.6984 16.2746 91.2837 16.5312C90.8723 16.7878 90.3992 16.9161 89.8652 16.9161C89.3367 16.9161 88.8652 16.7892 88.4508 16.5355C88.0364 16.2819 87.7152 15.9203 87.4875 15.4509C87.2598 14.9785 87.1446 14.4362 87.1416 13.8239V13.509C87.1416 12.8821 87.2541 12.3311 87.4788 11.8558C87.7065 11.3776 88.0261 11.0117 88.4378 10.758C88.8522 10.5014 89.325 10.3731 89.8563 10.3731C90.3875 10.3731 90.859 10.5014 91.2707 10.758C91.6851 11.0117 92.0049 11.3776 92.2296 11.8558C92.4573 12.3311 92.5712 12.8807 92.5712 13.5046V13.7889ZM91.2399 13.5003C91.2399 12.8325 91.1204 12.3252 90.881 11.9783C90.6416 11.6313 90.3 11.4578 89.8563 11.4578C89.4155 11.4578 89.0755 11.6298 88.8361 11.9739C88.5967 12.315 88.4755 12.8165 88.4728 13.4784V13.7889C88.4728 14.4391 88.5924 14.9436 88.8318 15.3022C89.0712 15.6608 89.4155 15.8401 89.8652 15.8401C90.306 15.8401 90.6446 15.6681 90.881 15.324C91.1174 14.9771 91.237 14.4727 91.2399 13.8108V13.5003ZM93.4647 14.4275C93.4647 13.7014 93.637 13.1168 93.9815 12.6737C94.3288 12.2305 94.7959 12.0089 95.3826 12.0089C95.9022 12.0089 96.3065 12.1867 96.5954 12.5424L96.6481 12.0963H97.7951V16.6711C97.7951 17.0852 97.7003 17.4453 97.5106 17.7514C97.3239 18.0575 97.0595 18.2908 96.7182 18.4512C96.3766 18.6115 95.9766 18.6917 95.5185 18.6917C95.1709 18.6917 94.8323 18.6217 94.5025 18.4818C94.1726 18.3447 93.9231 18.1669 93.7538 17.9482L94.3141 17.1785C94.6296 17.5313 95.012 17.7077 95.4614 17.7077C95.797 17.7077 96.0584 17.6173 96.2451 17.4365C96.4321 17.2587 96.5255 17.005 96.5255 16.6755V16.4218C96.2334 16.7513 95.8497 16.9161 95.3739 16.9161C94.8046 16.9161 94.3435 16.6945 93.9902 16.2512C93.6399 15.8052 93.4647 15.2147 93.4647 14.48V14.4275ZM94.7302 14.5193C94.7302 14.9479 94.8163 15.2847 94.9886 15.5296C95.1609 15.7716 95.3973 15.8926 95.6978 15.8926C96.0832 15.8926 96.359 15.7483 96.5255 15.4596V13.4696C96.3563 13.181 96.0832 13.0367 95.7065 13.0367C95.403 13.0367 95.1636 13.1606 94.9886 13.4084C94.8163 13.6563 94.7302 14.0266 94.7302 14.5193ZM98.781 14.4187C98.781 13.9493 98.8715 13.5309 99.0525 13.1635C99.2334 12.7961 99.4932 12.5118 99.8318 12.3106C100.173 12.1095 100.569 12.0089 101.018 12.0089C101.658 12.0089 102.179 12.2042 102.582 12.5949C102.987 12.9856 103.214 13.5163 103.26 14.1869L103.269 14.5106C103.269 15.2366 103.066 15.8197 102.66 16.26C102.255 16.6974 101.71 16.9161 101.027 16.9161C100.344 16.9161 99.7981 16.6974 99.3894 16.26C98.9837 15.8226 98.781 15.2278 98.781 14.4756V14.4187ZM100.046 14.5106C100.046 14.9596 100.131 15.3036 100.3 15.5427C100.47 15.7789 100.712 15.897 101.027 15.897C101.334 15.897 101.573 15.7804 101.745 15.5471C101.917 15.3109 102.004 14.9348 102.004 14.4187C102.004 13.9784 101.917 13.6373 101.745 13.3953C101.573 13.1533 101.331 13.0323 101.018 13.0323C100.709 13.0323 100.47 13.1533 100.3 13.3953C100.131 13.6344 100.046 14.0062 100.046 14.5106ZM101.268 10.1107H102.647L101.434 11.4665H100.405L101.268 10.1107ZM105.59 16.8286H104.32V10.1107H105.59V16.8286ZM108.008 12.0963L108.047 12.643C108.386 12.2203 108.839 12.0089 109.409 12.0089C109.911 12.0089 110.285 12.1561 110.53 12.4506C110.775 12.7451 110.9 13.1854 110.906 13.7714V16.8286H109.641V13.802C109.641 13.5338 109.582 13.3399 109.465 13.2203C109.349 13.0979 109.155 13.0367 108.883 13.0367C108.527 13.0367 108.26 13.1883 108.082 13.4915V16.8286H106.817V12.0963H108.008ZM111.879 14.4187C111.879 13.9493 111.969 13.5309 112.15 13.1635C112.331 12.7961 112.591 12.5118 112.93 12.3106C113.271 12.1095 113.667 12.0089 114.116 12.0089C114.755 12.0089 115.276 12.2042 115.679 12.5949C116.085 12.9856 116.311 13.5163 116.358 14.1869L116.367 14.5106C116.367 15.2366 116.164 15.8197 115.758 16.26C115.352 16.6974 114.808 16.9161 114.125 16.9161C113.442 16.9161 112.896 16.6974 112.487 16.26C112.082 15.8226 111.879 15.2278 111.879 14.4756V14.4187ZM113.144 14.5106C113.144 14.9596 113.229 15.3036 113.398 15.5427C113.567 15.7789 113.81 15.897 114.125 15.897C114.432 15.897 114.671 15.7804 114.843 15.5471C115.015 15.3109 115.101 14.9348 115.101 14.4187C115.101 13.9784 115.015 13.6373 114.843 13.3953C114.671 13.1533 114.429 13.0323 114.116 13.0323C113.807 13.0323 113.567 13.1533 113.398 13.3953C113.229 13.6344 113.144 14.0062 113.144 14.5106ZM119.073 14.9304L118.618 15.3853V16.8286H117.352V10.1107H118.618V13.8327L118.863 13.5177L120.076 12.0963H121.595L119.883 14.0688L121.744 16.8286H120.29L119.073 14.9304ZM124.915 15.5209C124.915 15.3663 124.837 15.2453 124.683 15.1579C124.531 15.0675 124.286 14.9873 123.947 14.9173C122.82 14.6811 122.257 14.203 122.257 13.4828C122.257 13.0629 122.43 12.713 122.778 12.4331C123.128 12.1503 123.585 12.0089 124.148 12.0089C124.75 12.0089 125.23 12.1503 125.589 12.4331C125.951 12.7159 126.132 13.0833 126.132 13.5353H124.867C124.867 13.3545 124.808 13.2058 124.691 13.0891C124.575 12.9696 124.392 12.9098 124.144 12.9098C123.931 12.9098 123.766 12.9579 123.649 13.0541C123.533 13.1504 123.474 13.2728 123.474 13.4215C123.474 13.5615 123.54 13.6752 123.671 13.7627C123.805 13.8472 124.03 13.9216 124.345 13.9857C124.661 14.047 124.926 14.1169 125.142 14.1957C125.811 14.4406 126.145 14.8648 126.145 15.4684C126.145 15.8999 125.96 16.2498 125.589 16.5181C125.218 16.7834 124.74 16.9161 124.153 16.9161C123.756 16.9161 123.403 16.8461 123.093 16.7061C122.787 16.5633 122.546 16.3693 122.371 16.1244C122.196 15.8766 122.108 15.6098 122.108 15.324H123.308C123.319 15.5486 123.403 15.7206 123.557 15.8401C123.712 15.9597 123.919 16.0194 124.179 16.0194C124.421 16.0194 124.604 15.9743 124.726 15.8839C124.852 15.7906 124.915 15.6696 124.915 15.5209ZM128.624 15.8095H130.94V16.8286H127.008V16.0588L129.237 13.1197H127.074V12.0963H130.87V12.8442L128.624 15.8095ZM133.454 10.933V12.0963H134.264V13.0235H133.454V15.3853C133.454 15.5602 133.488 15.6856 133.555 15.7614C133.622 15.8372 133.75 15.8751 133.94 15.8751C134.08 15.8751 134.204 15.8649 134.312 15.8445V16.8023C134.064 16.8781 133.808 16.9161 133.546 16.9161C132.658 16.9161 132.206 16.4685 132.189 15.5734V13.0235H131.497V12.0963H132.189V10.933H133.454ZM137.921 16.8286C137.862 16.7149 137.82 16.5735 137.793 16.4043C137.487 16.7455 137.089 16.9161 136.598 16.9161C136.134 16.9161 135.749 16.7819 135.442 16.5137C135.139 16.2454 134.987 15.9072 134.987 15.499C134.987 14.9975 135.172 14.6126 135.543 14.3444C135.917 14.0761 136.455 13.9405 137.159 13.9376H137.741V13.6665C137.741 13.4478 137.684 13.2728 137.57 13.1416C137.459 13.0104 137.283 12.9448 137.04 12.9448C136.827 12.9448 136.66 12.9958 136.537 13.0979C136.417 13.1999 136.357 13.3399 136.357 13.5177H135.092C135.092 13.2437 135.177 12.99 135.346 12.7567C135.515 12.5235 135.755 12.3413 136.064 12.2101C136.373 12.0759 136.721 12.0089 137.106 12.0089C137.69 12.0089 138.153 12.1561 138.494 12.4506C138.839 12.7422 139.011 13.1533 139.011 13.684V15.7352C139.014 16.1842 139.076 16.5239 139.199 16.7542V16.8286H137.921ZM136.874 15.9495C137.061 15.9495 137.233 15.9086 137.391 15.827C137.548 15.7425 137.665 15.6302 137.741 15.4902V14.6768H137.268C136.635 14.6768 136.298 14.8954 136.257 15.3328L136.252 15.4072C136.252 15.5646 136.308 15.6944 136.419 15.7964C136.53 15.8984 136.681 15.9495 136.874 15.9495ZM141.678 12.8486L142.299 12.643V13.3691L141.678 13.5746V16.8286H140.413V13.9945L139.835 14.1869V13.4609L140.413 13.2685V10.1107H141.678V12.8486ZM145.107 15.897C145.34 15.897 145.53 15.8328 145.676 15.7046C145.822 15.5763 145.898 15.4057 145.904 15.1928H147.09C147.087 15.5136 147 15.8081 146.827 16.0763C146.655 16.3417 146.419 16.5487 146.118 16.6974C145.82 16.8432 145.491 16.9161 145.129 16.9161C144.451 16.9161 143.917 16.7017 143.526 16.2731C143.135 15.8416 142.939 15.2468 142.939 14.4887V14.4056C142.939 13.6767 143.133 13.095 143.522 12.6605C143.91 12.2261 144.443 12.0089 145.12 12.0089C145.713 12.0089 146.187 12.178 146.543 12.5162C146.902 12.8515 147.085 13.2991 147.09 13.8589H145.904C145.898 13.614 145.822 13.4157 145.676 13.2641C145.53 13.1095 145.337 13.0323 145.098 13.0323C144.803 13.0323 144.58 13.1402 144.428 13.3559C144.279 13.5688 144.205 13.9158 144.205 14.3968V14.5281C144.205 15.015 144.279 15.3649 144.428 15.5777C144.577 15.7906 144.803 15.897 145.107 15.897ZM150.751 16.8067C150.702 16.6872 150.664 16.553 150.638 16.4043C150.331 16.7455 149.932 16.9161 149.442 16.9161C148.978 16.9161 148.593 16.7819 148.286 16.5137C147.983 16.2454 147.831 15.9072 147.831 15.499C147.831 14.9975 148.016 14.6126 148.387 14.3444C148.76 14.0761 149.299 13.9405 150.002 13.9376H150.585V13.6665C150.585 13.4478 150.528 13.2728 150.414 13.1416C150.303 13.0104 150.127 12.9448 149.884 12.9448C149.671 12.9448 149.503 12.9958 149.381 13.0979C149.261 13.1999 149.201 13.3399 149.201 13.5177H147.936C147.936 13.2437 148.02 12.99 148.19 12.7567C148.359 12.5235 148.598 12.3413 148.908 12.2101C149.217 12.0759 149.565 12.0089 149.95 12.0089C150.534 12.0089 150.996 12.1561 151.338 12.4506C151.682 12.7422 151.855 13.1533 151.855 13.684V15.7352C151.858 16.1842 151.92 16.5239 152.043 16.7542V16.8286H151.833C151.617 16.951 151.45 17.0706 151.334 17.1872C151.217 17.3068 151.158 17.4438 151.158 17.5983C151.158 17.7879 151.255 17.8826 151.447 17.8826C151.544 17.8826 151.661 17.8535 151.798 17.7951L151.925 18.4818C151.712 18.6101 151.471 18.6742 151.202 18.6742C150.91 18.6742 150.671 18.5926 150.484 18.4293C150.3 18.2689 150.208 18.0459 150.208 17.7601C150.208 17.3782 150.389 17.0604 150.751 16.8067ZM149.718 15.9495C149.905 15.9495 150.077 15.9086 150.235 15.827C150.392 15.7425 150.509 15.6302 150.585 15.4902V14.6768H150.112C149.479 14.6768 149.141 14.8954 149.101 15.3328L149.096 15.4072C149.096 15.5646 149.152 15.6944 149.263 15.7964C149.373 15.8984 149.525 15.9495 149.718 15.9495ZM155.003 15.897C155.237 15.897 155.427 15.8328 155.573 15.7046C155.718 15.5763 155.794 15.4057 155.8 15.1928H156.987C156.984 15.5136 156.896 15.8081 156.724 16.0763C156.552 16.3417 156.315 16.5487 156.015 16.6974C155.717 16.8432 155.387 16.9161 155.025 16.9161C154.348 16.9161 153.814 16.7017 153.423 16.2731C153.032 15.8416 152.836 15.2468 152.836 14.4887V14.4056C152.836 13.6767 153.03 13.095 153.418 12.6605C153.807 12.2261 154.339 12.0089 155.016 12.0089C155.609 12.0089 156.083 12.178 156.439 12.5162C156.799 12.8515 156.981 13.2991 156.987 13.8589H155.8C155.794 13.614 155.718 13.4157 155.573 13.2641C155.427 13.1095 155.234 13.0323 154.995 13.0323C154.7 13.0323 154.476 13.1402 154.325 13.3559C154.176 13.5688 154.101 13.9158 154.101 14.3968V14.5281C154.101 15.015 154.176 15.3649 154.325 15.5777C154.473 15.7906 154.7 15.897 155.003 15.897ZM160.096 16.9161C159.401 16.9161 158.835 16.7032 158.397 16.2775C157.962 15.8518 157.745 15.2847 157.745 14.5762V14.4537C157.745 13.9784 157.837 13.5542 158.021 13.181C158.205 12.8049 158.464 12.5162 158.8 12.315C159.139 12.1109 159.524 12.0089 159.956 12.0089C160.604 12.0089 161.113 12.213 161.484 12.6212C161.858 13.0294 162.045 13.6082 162.045 14.3575V14.8736H159.028C159.068 15.1826 159.191 15.4305 159.395 15.6171C159.603 15.8037 159.864 15.897 160.179 15.897C160.667 15.897 161.048 15.7206 161.322 15.3678L161.944 16.0632C161.754 16.3315 161.497 16.5414 161.173 16.693C160.849 16.8417 160.49 16.9161 160.096 16.9161ZM159.952 13.0323C159.701 13.0323 159.496 13.1168 159.339 13.2859C159.184 13.4551 159.085 13.6971 159.041 14.012H160.801V13.9114C160.795 13.6315 160.719 13.4157 160.573 13.2641C160.427 13.1095 160.22 13.0323 159.952 13.0323Z" fill="#232C33"/>
</svg>
